<svg width="149" height="47" viewBox="0 0 149 47" fill="none" xmlns="http://www.w3.org/2000/svg">
<g filter="url(#filter0_d_1701_1943)">
<path fill-rule="evenodd" clip-rule="evenodd" d="M81.0595 0.628906H37.0404L29.4077 4.49939V7.22306L29.5122 7.22435V28.9023L29.2003 29.064L14.8741 21.5025V4.35603H4V25.1419H4.03258L4.00005 25.1709L28.0255 37.8518L28.1421 37.748L28.1526 37.7569L40.9091 32.6984L40.9091 23.135L41.0041 7.36629L41.0136 7.36641L41.0136 5.78955L41.0136 5.35949H51.2604V27.5072L61.5071 22.4183V5.35949H72.3811V17.6877L83.778 14.8207V5.35949V4.06933V2.77917L81.0595 0.628906Z" fill="#849CFF"/>
</g>
<path d="M69.3524 46.4453L63.8084 23.3453H66.6794L71.2664 43.8053L75.8204 23.3453H78.6914L73.2464 46.4453H69.3524ZM81.6529 26.4803V23.8403H84.2929V26.4803H81.6529ZM81.6529 46.4453V29.2853H84.2929V46.4453H81.6529ZM87.2693 44.4653H90.0743C91.0203 44.4653 91.7023 44.2123 92.1203 43.7063C92.5603 43.1783 92.7803 42.4963 92.7803 41.6603C92.7803 41.0003 92.5823 40.4393 92.1863 39.9773C91.7903 39.5153 91.1963 38.9763 90.4043 38.3603C89.7223 37.8103 89.1723 37.3373 88.7543 36.9413C88.3583 36.5233 88.0063 36.0173 87.6983 35.4233C87.4123 34.8073 87.2693 34.1033 87.2693 33.3113C87.2693 32.1453 87.6543 31.1883 88.4243 30.4403C89.2163 29.6703 90.2723 29.2853 91.5923 29.2853H94.4633V31.2653H92.0873C90.5253 31.2653 89.7443 32.0023 89.7443 33.4763C89.7443 34.0483 89.9203 34.5433 90.2723 34.9613C90.6243 35.3793 91.1743 35.8743 91.9223 36.4463C92.6043 36.9743 93.1653 37.4583 93.6053 37.8983C94.0453 38.3163 94.4193 38.8553 94.7273 39.5153C95.0353 40.1533 95.1893 40.9123 95.1893 41.7923C95.1893 43.3543 94.7713 44.5203 93.9353 45.2903C93.1213 46.0603 91.9663 46.4453 90.4703 46.4453H87.2693V44.4653ZM100.166 46.6763C99.3739 46.6763 98.7799 46.4013 98.3839 45.8513C98.0099 45.3013 97.8229 44.5863 97.8229 43.7063V29.2853H100.463V42.8483C100.463 43.4643 100.507 43.9043 100.595 44.1683C100.683 44.4323 100.892 44.5643 101.222 44.5643C101.376 44.5643 102.619 44.2343 104.951 43.5743V29.2853H107.591V46.4453H105.71L105.215 45.3233C104.863 45.4553 104.599 45.5433 104.423 45.5873C103.389 45.9613 102.553 46.2363 101.915 46.4123C101.277 46.5883 100.694 46.6763 100.166 46.6763ZM111.559 29.2853H113.605L113.902 30.2423L115.255 29.8463C116.179 29.5603 116.905 29.3623 117.433 29.2523C117.983 29.1203 118.5 29.0543 118.984 29.0543C119.93 29.0543 120.59 29.4723 120.964 30.3083C121.58 30.0883 122.449 29.8243 123.571 29.5163C124.693 29.2083 125.518 29.0543 126.046 29.0543C126.838 29.0543 127.421 29.3293 127.795 29.8793C128.191 30.4293 128.389 31.1443 128.389 32.0243V46.4453H125.749V32.8823C125.749 32.2443 125.705 31.8043 125.617 31.5623C125.529 31.2983 125.309 31.1663 124.957 31.1663C124.781 31.1663 123.571 31.5183 121.327 32.2223V46.4453H118.687V32.8823C118.687 32.2443 118.643 31.8043 118.555 31.5623C118.467 31.2983 118.247 31.1663 117.895 31.1663C117.719 31.1663 116.487 31.5183 114.199 32.2223V46.4453H111.559V29.2853ZM135.455 46.4453C134.245 46.4453 133.277 46.0823 132.551 45.3563C131.847 44.6303 131.495 43.6513 131.495 42.4193V33.6413C131.495 32.2113 131.891 31.0893 132.683 30.2753C133.475 29.4613 134.652 29.0543 136.214 29.0543C137.776 29.0543 138.942 29.4613 139.712 30.2753C140.504 31.0893 140.9 32.2113 140.9 33.6413V35.1593C140.9 36.0833 140.636 36.7873 140.108 37.2713C139.58 37.7333 138.887 38.0853 138.029 38.3273L134.135 39.4163V42.6503C134.135 43.1783 134.289 43.6183 134.597 43.9703C134.927 44.3003 135.345 44.4653 135.851 44.4653H139.415V46.4453H135.455ZM136.148 36.7763C136.874 36.5783 137.358 36.4353 137.6 36.3473C137.864 36.2373 138.04 36.0833 138.128 35.8853C138.216 35.6873 138.26 35.3573 138.26 34.8953V33.0803C138.26 32.3763 138.073 31.8593 137.699 31.5293C137.347 31.1993 136.852 31.0343 136.214 31.0343C135.598 31.0343 135.092 31.2103 134.696 31.5623C134.322 31.9143 134.135 32.4203 134.135 33.0803V37.3373L136.148 36.7763ZM143.528 26.4803V23.8403H146.168V26.4803H143.528ZM143.528 46.4453V29.2853H146.168V46.4453H143.528Z" fill="#849CFF"/>
<defs>
<filter id="filter0_d_1701_1943" x="0" y="0.628906" width="87.7783" height="45.2229" filterUnits="userSpaceOnUse" color-interpolation-filters="sRGB">
<feFlood flood-opacity="0" result="BackgroundImageFix"/>
<feColorMatrix in="SourceAlpha" type="matrix" values="0 0 0 0 0 0 0 0 0 0 0 0 0 0 0 0 0 0 127 0" result="hardAlpha"/>
<feOffset dy="4"/>
<feGaussianBlur stdDeviation="2"/>
<feComposite in2="hardAlpha" operator="out"/>
<feColorMatrix type="matrix" values="0 0 0 0 0 0 0 0 0 0 0 0 0 0 0 0 0 0 0.25 0"/>
<feBlend mode="normal" in2="BackgroundImageFix" result="effect1_dropShadow_1701_1943"/>
<feBlend mode="normal" in="SourceGraphic" in2="effect1_dropShadow_1701_1943" result="shape"/>
</filter>
</defs>
</svg>
